<svg width="24" height="24" viewBox="0 0 24 24" fill="none" xmlns="http://www.w3.org/2000/svg">
<path d="M14.6679 2.36117C13.7912 2.11894 13 2.8394 13 3.74887C13 4.51343 13.5701 5.14459 14.2925 5.39498C17.0312 6.34422 19 8.93489 19 12.0008C19 12.4355 18.958 12.8585 18.8785 13.2687C18.7334 14.0178 18.989 14.8263 19.6479 15.2111C20.4349 15.6707 21.4578 15.3473 21.6861 14.465C21.89 13.6771 22 12.851 22 12.0008C22 7.4069 18.8933 3.52874 14.6679 2.36117ZM12 19.0008C10.1435 19.0008 8.36301 18.2633 7.05025 16.9505C5.7375 15.6378 5 13.8573 5 12.0008C5 8.93494 6.96875 6.34431 9.70737 5.39503C10.4298 5.1446 11 4.51337 11 3.74873C11 2.83928 10.2089 2.11873 9.33206 2.36012C5.10008 3.52516 2 7.3971 2 12.0008C2 14.6529 3.05357 17.1965 4.92893 19.0718C5.85752 20.0004 6.95991 20.737 8.17317 21.2396C9.38642 21.7421 10.6868 22.0008 12 22.0008C14.6956 22.0008 17.1443 20.9265 18.9428 19.1814C19.5908 18.5526 19.374 17.513 18.5958 17.0551C17.9392 16.6687 17.1088 16.8422 16.5308 17.3385C16.0762 17.7288 15.5712 18.0594 15.0278 18.3206C14.0834 18.7746 13.0479 19.0073 12 19.0008Z" fill="#F8F8FA"/>
</svg>
