<svg width="24" height="24" viewBox="0 0 24 24" fill="none" xmlns="http://www.w3.org/2000/svg">
<path d="M13.8751 22H10.1251C9.87509 22 9.65843 21.9167 9.47509 21.75C9.29176 21.5833 9.18343 21.375 9.15009 21.125L8.85009 18.8C8.63343 18.7167 8.42909 18.6167 8.23709 18.5C8.04509 18.3833 7.85776 18.2583 7.67509 18.125L5.50009 19.025C5.26676 19.1083 5.03343 19.1167 4.80009 19.05C4.56676 18.9833 4.38343 18.8417 4.25009 18.625L2.40009 15.4C2.26676 15.1833 2.22509 14.95 2.27509 14.7C2.32509 14.45 2.45009 14.25 2.65009 14.1L4.52509 12.675C4.50843 12.5583 4.50009 12.4457 4.50009 12.337V11.663C4.50009 11.5543 4.50843 11.4417 4.52509 11.325L2.65009 9.9C2.45009 9.75 2.32509 9.55 2.27509 9.3C2.22509 9.05 2.26676 8.81667 2.40009 8.6L4.25009 5.375C4.36676 5.14167 4.54576 4.99567 4.78709 4.937C5.02843 4.87833 5.26609 4.891 5.50009 4.975L7.67509 5.875C7.85843 5.74167 8.05009 5.61667 8.25009 5.5C8.45009 5.38333 8.65009 5.28333 8.85009 5.2L9.15009 2.875C9.18343 2.625 9.29176 2.41667 9.47509 2.25C9.65843 2.08333 9.87509 2 10.1251 2H13.8751C14.1251 2 14.3418 2.08333 14.5251 2.25C14.7084 2.41667 14.8168 2.625 14.8501 2.875L15.1501 5.2C15.3668 5.28333 15.5711 5.38333 15.7631 5.5C15.9551 5.61667 16.1424 5.74167 16.3251 5.875L18.5001 4.975C18.7334 4.89167 18.9668 4.88333 19.2001 4.95C19.4334 5.01667 19.6168 5.15833 19.7501 5.375L21.6001 8.6C21.7334 8.81667 21.7751 9.05 21.7251 9.3C21.6751 9.55 21.5501 9.75 21.3501 9.9L19.4751 11.325C19.4918 11.4417 19.5001 11.5543 19.5001 11.663V12.337C19.5001 12.4457 19.4834 12.5583 19.4501 12.675L21.3251 14.1C21.5251 14.25 21.6501 14.45 21.7001 14.7C21.7501 14.95 21.7084 15.1833 21.5751 15.4L19.7251 18.6C19.5918 18.8167 19.4041 18.9627 19.1621 19.038C18.9201 19.1133 18.6828 19.109 18.4501 19.025L16.3251 18.125C16.1418 18.2583 15.9501 18.3833 15.7501 18.5C15.5501 18.6167 15.3501 18.7167 15.1501 18.8L14.8501 21.125C14.8168 21.375 14.7084 21.5833 14.5251 21.75C14.3418 21.9167 14.1251 22 13.8751 22ZM12.0501 15.5C13.0168 15.5 13.8418 15.1583 14.5251 14.475C15.2084 13.7917 15.5501 12.9667 15.5501 12C15.5501 11.0333 15.2084 10.2083 14.5251 9.525C13.8418 8.84167 13.0168 8.5 12.0501 8.5C11.0668 8.5 10.2374 8.84167 9.56209 9.525C8.88676 10.2083 8.54943 11.0333 8.55009 12C8.55009 12.9667 8.88743 13.7917 9.56209 14.475C10.2368 15.1583 11.0661 15.5 12.0501 15.5Z" fill="#F8F8FA"/>
</svg>
