<svg width="24" height="24" viewBox="0 0 24 24" fill="none" xmlns="http://www.w3.org/2000/svg">
<g clip-path="url(#clip0_767_6011)">
<path d="M11.625 2.25C9.14012 2.25495 6.75843 3.24427 5.00135 5.00135C3.24427 6.75843 2.25495 9.14012 2.25 11.625V19.5281C2.25 19.9185 2.40507 20.2929 2.6811 20.5689C2.95713 20.8449 3.33151 21 3.72188 21H11.625C14.1114 21 16.496 20.0123 18.2541 18.2541C20.0123 16.496 21 14.1114 21 11.625C21 9.1386 20.0123 6.75403 18.2541 4.99587C16.496 3.23772 14.1114 2.25 11.625 2.25ZM14.25 14.25H8.625C8.42609 14.25 8.23532 14.171 8.09467 14.0303C7.95402 13.8897 7.875 13.6989 7.875 13.5C7.875 13.3011 7.95402 13.1103 8.09467 12.9697C8.23532 12.829 8.42609 12.75 8.625 12.75H14.25C14.4489 12.75 14.6397 12.829 14.7803 12.9697C14.921 13.1103 15 13.3011 15 13.5C15 13.6989 14.921 13.8897 14.7803 14.0303C14.6397 14.171 14.4489 14.25 14.25 14.25ZM14.25 11.25H8.625C8.42609 11.25 8.23532 11.171 8.09467 11.0303C7.95402 10.8897 7.875 10.6989 7.875 10.5C7.875 10.3011 7.95402 10.1103 8.09467 9.96967C8.23532 9.82902 8.42609 9.75 8.625 9.75H14.25C14.4489 9.75 14.6397 9.82902 14.7803 9.96967C14.921 10.1103 15 10.3011 15 10.5C15 10.6989 14.921 10.8897 14.7803 11.0303C14.6397 11.171 14.4489 11.25 14.25 11.25Z" fill="#F8F8FA"/>
</g>
<defs>
<clipPath id="clip0_767_6011">
<rect width="24" height="24" fill="white"/>
</clipPath>
</defs>
</svg>
